<svg width="48" height="48" viewBox="0 0 48 48" fill="none" xmlns="http://www.w3.org/2000/svg">
<rect width="48" height="48" rx="24" fill="#F2F4F7"/>
<path d="M24.3076 24.5576C24.3076 25.5479 24.1816 26.4502 23.9297 27.2646C23.6777 28.0732 23.3027 28.7705 22.8047 29.3564C22.3125 29.9365 21.6943 30.3848 20.9502 30.7012C20.2119 31.0176 19.3477 31.1758 18.3574 31.1758C17.3496 31.1758 16.4707 31.0176 15.7207 30.7012C14.9766 30.3848 14.3584 29.9336 13.8662 29.3477C13.374 28.7617 13.0049 28.0615 12.7588 27.2471C12.5186 26.4326 12.3984 25.5303 12.3984 24.54C12.3984 23.2217 12.6152 22.0674 13.0488 21.0771C13.4824 20.0869 14.1416 19.3193 15.0264 18.7744C15.917 18.2236 17.0361 17.9482 18.3838 17.9482C19.6846 17.9482 20.7744 18.2207 21.6533 18.7656C22.5322 19.3105 23.1943 20.0781 23.6396 21.0684C24.085 22.0527 24.3076 23.2158 24.3076 24.5576ZM14.2881 24.5576C14.2881 25.6006 14.4316 26.5029 14.7188 27.2646C15.0117 28.0205 15.457 28.6064 16.0547 29.0225C16.6582 29.4326 17.4258 29.6377 18.3574 29.6377C19.3008 29.6377 20.0713 29.4326 20.6689 29.0225C21.2666 28.6064 21.7061 28.0205 21.9873 27.2646C22.2686 26.5029 22.4092 25.6006 22.4092 24.5576C22.4092 22.9756 22.0869 21.7393 21.4424 20.8486C20.7979 19.9521 19.7783 19.5039 18.3838 19.5039C17.4463 19.5039 16.6758 19.709 16.0723 20.1191C15.4688 20.5234 15.0205 21.1035 14.7275 21.8594C14.4346 22.6094 14.2881 23.5088 14.2881 24.5576ZM30.6533 18.1504C31.7373 18.1504 32.6309 18.2852 33.334 18.5547C34.043 18.8184 34.5703 19.2227 34.916 19.7676C35.2617 20.3066 35.4346 20.9922 35.4346 21.8242C35.4346 22.4805 35.3145 23.0342 35.0742 23.4854C34.834 23.9365 34.5176 24.3057 34.125 24.5928C33.7383 24.8799 33.3223 25.1055 32.877 25.2695L36.4717 31H34.4062L31.2773 25.7441H28.9131V31H27.1113V18.1504H30.6533ZM30.5391 19.6797H28.9131V24.2412H30.6621C31.6758 24.2412 32.417 24.0449 32.8857 23.6523C33.3545 23.2539 33.5889 22.668 33.5889 21.8945C33.5889 21.0918 33.3398 20.5234 32.8418 20.1895C32.3438 19.8496 31.5762 19.6797 30.5391 19.6797Z" fill="#475467"/>
</svg>
